<?xml version="1.0" encoding="iso-8859-1"?>
<!-- Generator: Adobe Illustrator 16.0.0, SVG Export Plug-In . SVG Version: 6.00 Build 0)  -->
<!DOCTYPE svg PUBLIC "-//W3C//DTD SVG 1.1//EN" "http://www.w3.org/Graphics/SVG/1.1/DTD/svg11.dtd">
<svg version="1.1" id="Capa_1" xmlns="http://www.w3.org/2000/svg" xmlns:xlink="http://www.w3.org/1999/xlink" x="0px" y="0px"
	 width="792px" height="792px" viewBox="0 0 792 792" style="enable-background:new 0 0 792 792;" xml:space="preserve">
<g>
	<g>
		<path d="M585.598,84.731c1.299-33.715-3.062-60.499-3.064-60.444c0-0.003-1.88-7.296-1.309-22.718
			c-17.607-2.104-35.734,23.335-35.709,23.179c0.007-0.04-5.919-6.311-2.467-24.748c-16.094,5.681-36.58,30.275-36.557,30.168
			c-0.01,0.036-16.107,24.552-22.262,50.876c-38.959,62.31-99.634,174.945-99.383,173.153c-0.026,0.203-4.715,30.455,0.548,94.727
			c-17.331-10.661-11.832-45.86-11.806-46.076c-0.117,0.891-28.484,75.862-32.755,96.371
			c-4.989,26.654-71.744,142.842-71.284,138.467c-0.045,0.431,1.306,49.495,16.208,111.264
			c-29.382-20.346-27.717-79.719-27.678-80.104c-0.069,0.722-17.615,50.27-9.633,57.083c7.965,7.013,18.691,60.091,27.28,70.441
			c1.093,4.432-26.683,80.61-57.791,84.568c-31.265,5.153,8.935,11.545,15.007,11.033c3.038,0.032,20.617-15.562,37.905-36.733
			c17.21-20.284,34.133-46.138,34.136-46.05c0.082-0.183,71.826,14.717,110.85-20.043c38.495-30.533,90.875-168.878,91.218-171.048
			c-0.025,0.153-39.915,11.316-56.831,13.251c16.799-6.363,66.719-49.271,66.846-50.044c0.072-0.44,11.813-58.211,39.667-152.043
			C584.812,234.217,584.469,117.415,585.598,84.731z M367.557,612.379c-20.193,33.927-55.774,57.98-62.242,61.612
			c-0.287,0.244-0.539,0.446-0.734,0.545c-0.643,0.333-0.32,0.12,0.734-0.545c6.34-4.647,35.03-49.588,47.524-69.607
			c6.52-9.048,45.619-112.005,87.891-245.582c41.507-128.311,86.18-287.24,86.255-286.692
			c-6.359,50.279-43.172,195.353-78.273,311.512C413.124,503.128,379.258,593.707,367.557,612.379z"/>
	</g>
</g>
<g>
</g>
<g>
</g>
<g>
</g>
<g>
</g>
<g>
</g>
<g>
</g>
<g>
</g>
<g>
</g>
<g>
</g>
<g>
</g>
<g>
</g>
<g>
</g>
<g>
</g>
<g>
</g>
<g>
</g>
</svg>
